<svg xmlns="http://www.w3.org/2000/svg" version="1.1" xmlns:xlink="http://www.w3.org/1999/xlink" xmlns:svgjs="http://svgjs.dev/svgjs" viewBox="0 0 800 800" opacity="0.1"><defs><linearGradient x1="50%" y1="0%" x2="50%" y2="100%" id="ssscribble-grad"><stop stop-color="hsl(206, 75%, 49%)" stop-opacity="1" offset="0%"></stop><stop stop-color="hsl(331, 90%, 56%)" stop-opacity="1" offset="100%"></stop></linearGradient></defs><g fill="none" stroke-width="1.5" stroke="url(#ssscribble-grad)" stroke-linecap="round"><path d="M1102.98 420.66C1058.95 453.52 941.54 504.33 799.39 570.11 681.2 634.03 624.32 707.37 637.29 779.45 711.39 834.06 811.47 866.03 902.54 859.33 967.57 817.81 983.57 738.45 953.06 640.9 884.52 570.42 792.43 550.6 694.55 610.67 593.5 742.07 505.14 907.4 433.04 1038.37 369.4 1072.3 319.29 989.37 278.53 828.33 241.12 688.97 207.04 652.43 174.18 752.5 141.32 931.34 111.23 1069.39 86.67 1086.14 65.46 977.45 55.79 804.79 62.49 658.65 77.64 599.9 111.88 643.06 162.28 748.48 231.97 911.54 239.86 861.84 113.14 696.1 -12.14 574.75 -141.69 473.91 -239.88 398.7 -276.94 340.27 -238.76 300.48 -133.25 269.79 -3.79 244.77 106.95 218.04 150.98 185.18 103.99 152.32 -8.51 114.88 -137.96 77.93 -241.76 46.65 -277.28 26.66 -237.56 28.13 -137.42 46.39 -7.21 93.1 117.44 163.81 215.02 229.12 267.85 281.52 278.36 290.39 251.11 235.05 205.08 116.65 157.39 -40.89 107.08 -180.53 73.34 -253.18 58.87 -218.54 53.06 -96.5 63.52 57.44 85.3 153.47 110.46 124.07 140.86 -20.6 173.72 -199.44 206.58 -299.56 240.34 -256.38 277.15 -104.36 317.34 69.36 366.66 171.02 429.42 161.19 500.83 54.33 588.68 -81.52 689.64 -178.72 787.97 -204.59 881.19 -145.82 951.51 -32.28 984.08 108.33 970.23 234.87 906.87 327.04 816.42 384.4 715.69 406.55 639.62 408.9 623.98 393.77 678.18 380.21 794.66 378.26 936.79 374.44 1055.97 387.79 1102.98 420.65Q1102.98 420.66 1102.98 420.66" opacity="0.34"></path><path d="M1068.98 583.46C1030.94 613.98 927.14 653.54 795.74 697.69 638.66 754.87 667.65 783.65 794.2 717.06 900.38 614.08 887.07 529.24 789.56 663.68 705.02 809.07 620.81 950.13 544.69 1031.22 469.89 1017.97 406.97 911.29 356.11 757.42 307.03 641.01 267.38 621.12 236.86 718.5 196.39 952.77 174.97 910.53 200.61 682.04 223.84 580.99 257.8 565.71 295.31 623.71 319.12 729.66 328.67 832.31 311.34 897.84 260.04 918.01 174.41 884.91 61.18 815.74 -57.83 720.32 -163.8 620.7 -228.74 531.06 -235.47 444.59 -178.35 375.42 -70.28 322.26 49.33 272.71 146.94 233.61 184.98 203.09 144.17 172.58 44.76 152.1 -75.15 144.1 -182 139.71 -236.87 153.37 -227.61 186.94 -160.44 223.71 -53.16 273.07 66.06 321.47 178.49 343.63 262.59 332.94 312.1 272.78 327.51 167.27 316.37 28.44 291.45 -109.27 253.19 -199.07 218.95 -211.16 195.73 -132.5 170.53 64.93 192.89 71.9 233.47 -165.44 263.98 -262.86 303.43 -236.82 352.15 -108.64 402.69 56.99 465.26 181.06 539.8 216.69 615.89 157.99 700.39 44.3 785.68 -69.31 857.63 -148.41 912.58 -159.4 937.18 -107.87 927.67 -8.53 879.76 110.29 799.1 222.78 711.64 324.39 631.72 398.67 586.91 448.5 600.01 481.2 672.23 501.63 790.85 519.54 922.54 532.93 1028.14 552.95 1068.98 583.45Q1068.98 583.46 1068.98 583.46" opacity="0.30"></path><path d="M1034.98 621.51C1002.53 649.67 912 673.07 792.75 688.78 675.35 700.69 588.93 698.33 549.1 677.24 560.24 648.3 610.95 600.74 682.07 541.48 763.22 493.73 829.77 460.53 870.95 461.99 888.49 510.84 876.51 607.41 842.14 739.47 790.2 871.19 728.74 970.67 666.34 999.78 599.55 948.1 539.09 828.93 488.43 688.74 437.7 595.71 397.57 590.57 369.4 684.5 333.8 903.88 326.13 925.22 348.72 718.99 369.84 560.42 362.64 637.85 293.95 767.2 215.85 835.31 115.91 863.98 5.43 855.02 -95 815.9 -170.98 755.2 -202.76 687.29 -183.58 610.87 -113.19 541.17 -6.65 483.88 101.71 426.55 186.53 383.07 218.98 354.9 183.94 326.73 97.33 315.2 -11.59 319.41 -151.67 332.8 -129.98 395.9 10.22 398.78 120.75 364.35 219.96 295.25 296.83 190.23 349.69 68.74 376.55 -54.19 384.21 -146 374.44 -178.14 358.5 -138.2 344.36 -32.9 326.01 92.95 316.64 196.36 319.06 226.37 321.46 160.31 336.36 21.24 364.52 -131.44 392.69 -225.41 432.79 -214.58 483.5 -110.7 534.2 40.34 594.81 175.56 661.97 247.9 724.92 239.45 787.26 165.23 840.44 62.84 876.19 -39.88 889.78 -103.07 873.85 -115 833.9 -79.55 768.09 -5.91 686.88 85.24 614.85 187.91 562.4 281.85 548.96 359.61 586.52 429.52 671.15 483.11 787.79 524.32 907.6 561.73 999.92 593.33 1034.98 621.5Q1034.98 621.51 1034.98 621.51" opacity="0.39"></path><path d="M1000.98 508.91C973.7 534.73 895.99 546.69 789.9 544.72 678.56 541.68 585.93 523.7 527.61 492.86 510.38 464.95 530.94 432.76 577.65 407.17 644.26 404.17 710.89 427.27 765.67 486.15 809.41 576.46 830.69 692.8 830.96 815.01 815.91 911.8 786.26 961.71 748.67 944.06 704.11 865.62 659.06 744.77 618.19 623.3 575.95 553.22 540.86 560.77 515.04 650.5 489.22 789.93 473.9 917.7 467.44 985.67 459.62 974.88 457.7 889.01 457.52 762.14 450.36 629.91 437.49 530.91 412.75 483.53 372.68 491.06 314.34 540.42 236.76 608.97 148.13 687.3 50.9 749.34 -42.6 786.18 -116.19 803.21 -159.9 794.65 -161.6 768.65 -122.21 730.23 -44.27 686.25 57.1 644.39 153.23 599.92 225.7 563.19 252.98 537.37 223.31 511.55 149.07 497.85 52.18 493.64 -48.85 486.8 -125.49 483.81 -163 477.49 -159.16 458.75 -113.53 424.8 -38.56 367.98 55.71 291.35 153.02 192.25 241.15 80.08 317.75 -22.3 374.89 -102.28 413.74 -136.72 437.19 -116.23 448.95 -40.4 455.26 72.89 454.67 180.84 456.07 252.03 463.57 252.88 469.75 174.97 484.94 41.98 510.76 -97.44 536.58 -187.21 571.8 -189.55 614.31 -109.53 655.5 21.89 701.07 157.45 746.41 254.82 784.85 291.41 815.61 264.67 831.96 194.77 832.91 99.44 812.85 13.71 770.09 -42.76 715.8 -67.8 649.11 -53.84 581.71 -11.04 533.61 54.33 511.13 129.05 526.2 201.7 582.63 277.29 673.95 342.23 784.96 393.96 891.81 444.63 971.29 483.08 1000.98 508.9Q1000.98 508.91 1000.98 508.91" opacity="0.26"></path><path d="M966.98 322.25C944.46 345.72 878.95 356.1 786.63 355.28 684.38 355.91 591 348.76 520.65 339.2 480.53 338.53 472.63 345.64 491.42 369.09 533.92 413.01 586.36 481.07 638.31 572.81 690.45 674.42 729.76 779.21 753.69 867.31 768.28 918.14 768.15 920.13 756.74 866.7 738.96 774.44 715.15 661.46 689.16 562.04 661.43 513.67 634.89 531.7 611.42 616.5 587.94 742.63 568.65 862.87 552.12 939.14 533.84 953.91 514.95 902.02 492.06 803.38 462.79 681.95 424.26 569.09 373.5 486.66 313.39 443.49 240.39 441.66 157.48 470.17 74.76 523.55 -5.5 582.01 -72.44 632.95 -115.67 679.92 -128.82 708.82 -105.9 720.05 -52.75 722.63 27.25 712.42 120.44 694.34 203.71 673.37 264.46 649.9 286.98 626.43 262.27 602.95 199.81 580.59 115.63 557.3 22.42 531.11 -56.76 498.63 -108.47 455.38 -129.55 403.48 -114.54 335.93 -69.71 252.78 -1.51 165.66 79.48 73.51 162.42 -10.63 245.09 -69.92 317.53 -95.93 376.88 -77.21 426.69 -19.23 464.29 72.56 492.74 176.79 514.81 258.23 533.06 296.78 550.9 272.97 567.01 187.67 586.09 62.68 609.56 -63.44 633.03 -148.27 659.79 -161.58 687.94 -104.16 714.36 4.3 738.82 130.64 757.43 240.11 769.66 310.77 770.72 329.83 757.09 303.45 733.92 239.79 695.19 162.83 643.27 91.98 591.1 31 537.93 -3.35 494.16 -11.1 473.77 1.62 479.79 33.16 518.07 74.51 586.98 124.75 679.52 174.59 781.79 218.23 875.03 263.32 942.25 298.77 966.98 322.24Q966.98 322.25 966.98 322.25" opacity="0.88"></path><path d="M932.98 188.46C914.78 209.58 860.74 226.1 782.39 239.93 691.6 256.05 602.37 273.95 526.59 298.08 470.61 330.46 439.28 375.52 431.35 436.34 445.89 507.28 475.13 591.76 511.41 683.16 555.38 766.64 595.61 836.62 627.68 878.51 657.13 883.68 675.4 847.54 682.77 772.69 686.37 679.17 681.24 581.59 669.31 505.79 656.05 477.12 638.38 503.35 617.25 582.5 596.13 695.31 572.55 806.36 545.97 886.58 518.06 921.42 484.76 900.99 444.55 834.86 400.57 737.26 347.52 630.05 285.51 533.08 220.88 455.82 150.32 408.9 78.66 391.05 14.69 399.92 -39.58 426.13 -76.11 459.29 -90.18 500.85 -77.8 536.69 -37.3 562.06 22.98 585.83 100.18 597.17 182.82 596.53 253.02 594.48 302.78 582.62 320.98 561.5 300.79 540.38 249.42 510.99 178.2 473.2 95.24 434.01 18.44 384.25 -40.87 323.87 -79.94 261.9 -90.71 191.27 -75.07 117.15 -37.08 51.42 18.33 -5.12 83.06 -41.69 155.16 -51.53 225.81 -29.66 290.27 25.58 351.89 100.54 404.45 188.81 447.92 270.93 487.55 321.59 520.35 330.01 547.9 287.04 574.12 198.68 597.49 83.36 618.62 -29.44 639.75 -108.62 657.62 -130.6 671.25 -93.78 683.54 -9.85 689.17 99.75 686.15 208.76 679.29 299.1 661.53 354.2 632.47 371.03 600.56 351.14 560.24 306.21 515.83 250.42 478.79 186.7 448.41 132.55 432.4 94.17 438.76 65.9 468.46 55.63 523.01 59.86 597.81 72.33 686.63 92.87 777.74 116.58 857.11 142.6 912.78 167.32 932.98 188.45Q932.98 188.46 932.98 188.46" opacity="0.29"></path><path d="M898.98 198.52C884.66 217.29 841.23 240.83 776.65 269.66 698.92 300 617.92 338.27 542.92 385.74 478.8 436.76 431.34 498.06 401.83 567.79 390.22 636.59 393.62 706.69 407.42 770.09 431.93 816.8 459.22 842.69 484.82 839.9 512.89 809.37 534.85 750.02 548.96 668.87 562.28 584.74 567.29 507.57 563.99 455.23 560.13 443.61 548.83 475.7 530.05 548.5 511.28 648.03 485.91 748.48 454.35 828.56 422.24 877.39 383.07 883.5 337.21 849.73 290.56 783.47 237.67 697.29 180.67 606.22 126.12 517.64 71.87 444.35 22.75 390.9 -28.48 348.59 -23.99 357.32 41.67 379.06 102.9 396.89 173.22 408.23 243.7 410.48 301.03 413.09 340.66 405.52 354.98 386.74 338.88 367.97 297.75 338.88 239.36 300.86 168.33 263.2 98.04 217.7 37.34 167.32 -12.04 120.69 -41.42 74.47 -50.04 34.77 -40.71 7.74 -13.79 -3.7 25.65 6.21 75.65 35.05 130.49 86.08 185.39 155.09 242.58 226.62 295.47 295.96 342.03 348.46 387.71 368.48 426.69 351.7 458.64 295.64 490.01 208.33 515.27 104.08 534.05 4.55 552.83 -68.27 564.24 -96.57 568.29 -77.72 571.75 -18.15 566.94 69.7 553.8 167.59 539.79 262.51 517.82 338.71 489.57 388.8 463.61 411.14 435.72 407.52 410.34 385.42 395.5 346.64 390.83 303.49 401.04 263.63 429.21 222.84 475.43 192.46 538.58 173.98 613.03 159.05 694.01 154.94 772.28 160.01 837.92 166.6 882.87 179.73 898.98 198.51Q898.98 198.52 898.98 198.52" opacity="0.35"></path><path d="M864.98 345.59C820.95 378.45 703.5 447.03 566.48 543.4 445.5 635.21 371.34 733.01 343.75 794.73 355.59 792.38 382.03 708.32 399.39 563.04 421.92 445.09 420.02 414.43 387.16 514.5 354.3 693.35 293.59 825.82 214.11 843.02 139.8 751.55 62.08 600.67 7.16 461.35 -8.3 352.27 30.99 295.39 127.88 269.93 240.82 264.5 344.95 253.86 388.98 221 341.99 188.15 236.11 136.18 123.09 84.65 27.56 53.15 -9.6 58.74 7.94 124.74 64.78 220.99 143.72 337.02 218.62 404.42 298.43 363.16 359.21 217.39 392.07 38.55 424.94 -61.56 426.78 -17.61 403.92 124.42 385.97 293.79 358.31 412.72 344.53 458.14 370.05 439.49 442.05 392.97 561.66 358.12 698.77 318.69 817.97 312.72 864.98 345.58Q864.98 345.59 864.98 345.59" opacity="0.49"></path><path d="M830.98 529.66C798.53 557.82 707.76 609.84 593.57 671.48 478.12 720.4 387.05 752.24 329.06 739.99 298.95 686.79 289.11 584.19 283.91 463.32 286.69 387.43 277.93 386.57 249.76 480.5 221.6 633.19 176.69 761.1 125.1 812.03 81.49 782.11 47.36 685.58 40.56 569.28 61.63 447.75 122.83 353.38 217.63 290.57 311.18 240.26 390.53 205.14 422.98 176.98 387.94 148.81 306.83 130.27 212.69 131.76 118.41 145.76 58.55 196.16 39.04 280.78 47.6 360.15 83.14 426.81 127.65 436.1 180.03 364.54 225.31 225.23 253.48 72.55 281.66 -21.41 290.04 -9.16 286.47 87.36 290.77 228.88 299.19 361.36 327.53 451.48 383.95 500.65 473.68 512.77 588.6 512.66 703.39 499.83 795.92 501.48 830.98 529.65Q830.98 529.66 830.98 529.66" opacity="0.66"></path><path d="M796.98 625.55C774.46 649.02 708.5 672.82 620.29 687.63 522.08 692.24 432.03 671.3 361.31 616.63 304.94 547.88 266.54 458.86 239.91 377.12 219.7 340.79 200.17 361.7 176.7 446.5 153.23 572.63 128.03 687.85 107.57 756.74 93.53 775 95.29 737.49 120.9 668.44 160.85 577.74 226.01 490.1 307.01 421.24 378.02 354.45 434.46 308.09 456.98 284.62 432.27 261.14 374.15 262.79 302.25 288.9 221.1 317.08 156.48 368.09 117.41 428.02 93 466.3 92.36 478.92 107.22 443.47 128.51 357.39 154.16 232.67 177.63 106.55 201.1 21.72 220.18 10.3 239.56 63.82 265.37 162.76 302.64 276.68 357.81 376.21 427.63 461.64 517.16 519.22 615.51 555.29 704.62 581.15 772.25 602.07 796.98 625.54Q796.98 625.55 796.98 625.55" opacity="0.19"></path><path d="M762.98 568.06C748.66 586.84 704.62 589.47 642.73 574.75 568.99 556.43 494.25 516.75 428.22 459.5 366.12 405.69 316.05 349.97 278.63 310.4 244.38 305.9 218.03 339.7 199.26 412.5 180.48 512.04 171.05 608.22 172.75 679.76 177.63 726.09 198.4 735.19 235.88 715.63 277.3 675.47 332.12 624.93 392.1 578.09 440.23 527.55 476.66 489.49 490.98 470.71 474.88 451.93 436.98 454.21 387.84 472.21 327.29 486.51 272.37 507.75 231.18 523.3 194.21 518.24 174.03 489.23 169.64 429.13 168.47 343.83 178.22 240.04 197 140.5 215.78 67.7 241.81 41.51 275.51 59.77 312.45 113.11 361.93 188.74 423.51 267.16 489.31 349.02 564.14 418 638.45 468.86 701.35 516.13 746.87 549.27 762.98 568.05Q762.98 568.06 762.98 568.06" opacity="0.61"></path><path d="M728.98 396.28C696.53 424.44 605.21 386.18 509.95 315.2 409.79 277.03 335.94 284.57 307.77 378.5 279.6 531.2 302.45 648.03 365.7 685.91 424.05 679.07 492.53 636.89 524.98 608.72 489.94 580.55 419.75 571.73 360.82 541.66 297.62 466.87 275.13 327.2 303.3 174.5 331.46 80.57 404.96 95.87 505.07 170.94 600.92 278.85 693.94 368.11 728.98 396.28Q728.98 396.28 728.98 396.28" opacity="0.72"></path><path d="M694.98 227.02C637.84 264.57 493.33 241.36 455.78 344.5 418.22 548.76 501.84 642.34 558.98 604.79 498.5 567.23 413.44 412.76 451 208.5 488.55 105.36 634.5 189.46 694.98 227.02Q694.98 227.02 694.98 227.02" opacity="0.51"></path></g></svg>