<svg xmlns="http://www.w3.org/2000/svg" version="1.1" xmlns:xlink="http://www.w3.org/1999/xlink" xmlns:svgjs="http://svgjs.dev/svgjs" viewBox="0 0 800 800"><defs><linearGradient x1="50%" y1="0%" x2="50%" y2="100%" id="ssspill-grad"><stop stop-color="hsl(0, 0%, 80%)" stop-opacity="1" offset="45%"></stop><stop stop-color="hsl(0, 0%, 100%)" stop-opacity="1" offset="100%"></stop></linearGradient><filter id="ssspot-filter" x="-20%" y="-20%" width="140%" height="140%" filterUnits="objectBoundingBox" primitiveUnits="userSpaceOnUse" color-interpolation-filters="sRGB">
	<feTurbulence type="turbulence" baseFrequency="0.022 0.218" numOctaves="2" seed="292" stitchTiles="stitch" x="0%" y="0%" width="100%" height="100%" result="turbulence"></feTurbulence>
	<feGaussianBlur stdDeviation="0 3" x="0%" y="0%" width="100%" height="100%" in="turbulence" edgeMode="duplicate" result="blur"></feGaussianBlur>
	<feDisplacementMap in="SourceGraphic" in2="blur" scale="32" xChannelSelector="R" yChannelSelector="B" x="0%" y="0%" width="100%" height="100%" result="displacementMap"></feDisplacementMap>
</filter></defs><rect width="100%" height="100%" fill="transparent"></rect><g fill="url(#ssspill-grad)" filter="url(#ssspot-filter)"><circle r="4.241609378349121" cx="662.1916655260965" cy="268.94796072574195" opacity="0.8336351958913454"></circle><circle r="4.245075856468233" cx="359.13687653228567" cy="563.5222181589197" opacity="0.33729827886079444"></circle><circle r="5.470605727533723" cx="93.60936547685249" cy="643.2393056767991" opacity="0.667281178392516"></circle><circle r="3.675168970494462" cx="701.3237726383377" cy="19.73476847464838" opacity="0.15427549961225712"></circle><circle r="7.06172403731442" cx="49.33913400264927" cy="636.7630837236417" opacity="0.9680560928126469"></circle><circle r="6.05710383922118" cx="253.41249796289466" cy="21.998837576822584" opacity="0.2935546714225955"></circle><circle r="5.027557797083304" cx="96.3252085755756" cy="539.3386659538587" opacity="0.4967112619665228"></circle><circle r="5.914655712707721" cx="210.15704179828597" cy="490.5058003593723" opacity="0.9779368077476912"></circle><circle r="2.8705839377093283" cx="515.0710891131708" cy="502.3883603247646" opacity="0.36853381845628475"></circle><circle r="8.105379100484344" cx="319.68320744423585" cy="312.1476966961261" opacity="0.20806529225272657"></circle><circle r="6.670473908833114" cx="208.82172336126592" cy="388.8597453130197" opacity="0.919008650004306"></circle><circle r="7.062193195610394" cx="739.3422048984598" cy="245.11611696473972" opacity="0.28800684608613303"></circle><circle r="7.531542103368027" cx="462.0029913650338" cy="598.9058512561032" opacity="0.10009504351951132"></circle><circle r="3.0781739101218126" cx="181.957189568748" cy="571.9357130316788" opacity="0.952275321131457"></circle><circle r="4.5923810530063225" cx="137.9388533974912" cy="740.4270123787916" opacity="0.5054982503826096"></circle><circle r="6.880428015880588" cx="521.5918334618117" cy="662.4037235601593" opacity="0.9201722949044319"></circle><circle r="5.848729319903342" cx="635.3230315130678" cy="101.54109666434012" opacity="0.8907103681757069"></circle><circle r="3.5006734055748194" cx="500.67686543473076" cy="250.18666248608372" opacity="0.3934729959896087"></circle><circle r="5.977796173792765" cx="683.6075262043521" cy="689.8521414520948" opacity="0.8983173446352236"></circle><circle r="4.830278303209145" cx="486.25928965097506" cy="384.72260910209894" opacity="0.4803018091835686"></circle><circle r="9.262596598667013" cx="126.3136555734621" cy="498.15521804550303" opacity="0.45284436062062716"></circle><circle r="4.266442432501179" cx="570.0121338266287" cy="697.7624836624962" opacity="0.2019281663002972"></circle><circle r="7.563826188768448" cx="495.31843478736283" cy="302.8273863786377" opacity="0.35846451815714486"></circle><circle r="8.899952657349122" cx="716.1399741640821" cy="627.8135789968793" opacity="0.9711331965116579"></circle><circle r="4.385090729665999" cx="704.530655682726" cy="472.13625240851513" opacity="0.15260471702838999"></circle><circle r="5.1872816008850045" cx="466.0138318261853" cy="110.88718970156977" opacity="0.5432040628174497"></circle><circle r="4.959141320387436" cx="575.6449069383311" cy="181.70093221210448" opacity="0.6079785104908728"></circle><circle r="5.012015642391878" cx="526.5258855418109" cy="158.09052886922592" opacity="0.35849841309623276"></circle><circle r="3.4766828249536426" cx="74.65707033319187" cy="790.9859997945158" opacity="0.8835053022111067"></circle><circle r="6.3624325878371994" cx="459.21777760841815" cy="317.16100070703294" opacity="0.2443555056826383"></circle><circle r="5.7355355459934145" cx="479.021367929645" cy="537.5299321556197" opacity="0.4965003136695637"></circle><circle r="7.221269979843739" cx="473.6293608015833" cy="239.27423070706956" opacity="0.49988884312598547"></circle><circle r="6.410095817296371" cx="498.26388018707036" cy="719.4790402122904" opacity="0.9513633334961858"></circle><circle r="7.338937565175209" cx="423.9903174258027" cy="16.3989587838361" opacity="0.4587298896244001"></circle><circle r="6.216965921132577" cx="380.5673582958656" cy="460.2526414611344" opacity="0.4690328674548734"></circle><circle r="5.065446917109887" cx="185.59740052183253" cy="331.2596600182752" opacity="0.3955812855841008"></circle><circle r="5.114611247867432" cx="719.1781208782868" cy="667.156431971109" opacity="0.617003735376324"></circle><circle r="4.453619025683557" cx="365.0052828090637" cy="682.0835703734244" opacity="0.46169152469441366"></circle><circle r="6.750860858819824" cx="198.31403558878978" cy="728.8534260616127" opacity="0.9494051713306706"></circle><circle r="4.336557099069331" cx="455.87040791362944" cy="449.3304612949823" opacity="0.5450110699920051"></circle><circle r="7.081763570808045" cx="32.358989786992154" cy="670.3630567058398" opacity="0.36437750392104196"></circle><circle r="5.360117455517587" cx="777.1555692785571" cy="527.2436265454679" opacity="0.5402750961468362"></circle><circle r="5.675820814041557" cx="571.6514527477572" cy="737.0339347383775" opacity="0.64780152311179"></circle><circle r="5.6919476957378095" cx="400.6801062440985" cy="385.08328677804946" opacity="0.2797262139955612"></circle><circle r="4.217842226685458" cx="19.568064568172634" cy="524.2706710821292" opacity="0.4242120058513902"></circle><circle r="7.604224757567596" cx="351.97950161400144" cy="445.69474159827394" opacity="0.37510850508363347"></circle><circle r="5.261836358840625" cx="420.5116263403348" cy="86.03273309069544" opacity="0.4320508257865062"></circle><circle r="3.8768636826625618" cx="117.90288782070172" cy="707.4923765049408" opacity="0.9114087307317175"></circle><circle r="3.2279141129967117" cx="673.2721374258196" cy="474.7111753424471" opacity="0.5036325854423495"></circle><circle r="3.4179574470439205" cx="649.2339782505001" cy="508.7699517872627" opacity="0.4354731139032657"></circle><circle r="6.358175185292252" cx="283.0681850171745" cy="619.4368751767206" opacity="0.6962997972010981"></circle><circle r="3.860009575328742" cx="68.2499217992288" cy="91.05024617569721" opacity="0.6780177793744341"></circle><circle r="4.367477721080438" cx="365.2436269364484" cy="202.913662910849" opacity="0.4707948448008774"></circle><circle r="6.0601165300686635" cx="503.57783863962453" cy="474.1996435200662" opacity="0.9554896754433403"></circle><circle r="7.3653386962245015" cx="13.913437038463064" cy="597.3592737446271" opacity="0.7982740139813861"></circle><circle r="6.938945126244946" cx="660.4392110666467" cy="448.5044060160405" opacity="0.7653499767504023"></circle><circle r="6.599911683327371" cx="108.07543181709347" cy="575.1808900055149" opacity="0.3591572076339107"></circle><circle r="4.801839058507858" cx="316.59770955371914" cy="152.86221578036142" opacity="0.5415384133830713"></circle><circle r="6.825833782486989" cx="353.4915408024152" cy="236.4237329318104" opacity="0.4470015810702431"></circle><circle r="6.170372096190636" cx="387.9901459974431" cy="423.66533145524187" opacity="0.2532261916522891"></circle><circle r="4.926440901127849" cx="789.4907609592855" cy="90.68225024735969" opacity="0.1692252584794698"></circle><circle r="5.39840777216507" cx="50.94734269038537" cy="40.264461749937055" opacity="0.44601457906721"></circle><circle r="6.4892620430547705" cx="368.01004292451694" cy="367.6769704830003" opacity="0.9597256139797115"></circle><circle r="4.484704037424901" cx="210.58172139252522" cy="584.0720636792972" opacity="0.5005297222021217"></circle><circle r="6.978997310642624" cx="281.6439378306127" cy="559.7587093521936" opacity="0.7279125228896047"></circle><circle r="4.876823614197093" cx="593.7455628728983" cy="635.9119919975464" opacity="0.4677289623209102"></circle><circle r="4.971636718652814" cx="418.9976959770191" cy="302.2098173479229" opacity="0.5961067846891334"></circle><circle r="4.873914529765996" cx="250.03478113253902" cy="570.691742801406" opacity="0.52091638806136"></circle><circle r="5.864773206911996" cx="552.9976197225666" cy="578.6551501996021" opacity="0.9613425875868465"></circle><circle r="3.4674444566506506" cx="548.7873706267845" cy="611.030341050816" opacity="0.5637805073105628"></circle><circle r="5.5818653335546475" cx="620.499268936991" cy="620.3246225120508" opacity="0.8240071385474353"></circle><circle r="6.584272768724027" cx="50.9362221710864" cy="65.59983061274413" opacity="0.467897770437226"></circle><circle r="6.601471027891849" cx="770.4610142006843" cy="51.89656080314519" opacity="0.6173441076713897"></circle><circle r="5.289410432648843" cx="57.346508855652715" cy="702.9927088284411" opacity="0.7230080116229963"></circle><circle r="7.605423388743436" cx="159.99921434756766" cy="379.2634136531845" opacity="0.7392630508868546"></circle><circle r="6.622817115090878" cx="702.9791640720886" cy="129.87446291947498" opacity="0.6152853231314273"></circle><circle r="6.268531752650558" cx="341.57800197441134" cy="737.9323357937059" opacity="0.30528498692746475"></circle><circle r="4.4270012685278495" cx="16.37404417005673" cy="417.59363330512696" opacity="0.9885209439144939"></circle><circle r="4.4271367655133345" cx="11.6632794369987" cy="494.36439385772616" opacity="0.1682236273948856"></circle><circle r="5.59587370941056" cx="784.8600197723803" cy="596.1232840902554" opacity="0.13327604940189233"></circle><circle r="7.878746131328819" cx="452.46432391928914" cy="42.00727847770742" opacity="0.11692379798603575"></circle><circle r="5.092401117778706" cx="394.9090877960665" cy="663.35787388425" opacity="0.7089141065327546"></circle><circle r="5.30102466743589" cx="73.03065628938457" cy="742.3921998721806" opacity="0.21714060658888645"></circle><circle r="7.953047064779804" cx="169.9691262500017" cy="496.4567914592399" opacity="0.8733497594494336"></circle><circle r="4.28696611893157" cx="164.0046614321404" cy="586.7603103489153" opacity="0.34337823845801585"></circle><circle r="6.631375519875112" cx="354.5405030410211" cy="65.01914729500851" opacity="0.3682704928966909"></circle><circle r="4.57423419020646" cx="767.2869851837416" cy="779.8162918660896" opacity="0.6498092607205007"></circle><circle r="7.4016293991405355" cx="76.67536412078263" cy="672.4076339541888" opacity="0.614298148058181"></circle><circle r="10.073137518193978" cx="439.69430876128337" cy="645.2362180686544" opacity="0.4742780806350271"></circle><circle r="3.4698214812746464" cx="549.3377566587371" cy="254.25546691719194" opacity="0.9122085548709371"></circle><circle r="5.135635790290904" cx="404.69341827583423" cy="237.8938477410488" opacity="0.13333228982817685"></circle><circle r="5.951030328967369" cx="281.7752227706688" cy="651.1279189234465" opacity="0.2586034551585996"></circle><circle r="6.066324394126851" cx="344.06943011668125" cy="108.95636580092001" opacity="0.9486377372399354"></circle><circle r="8.407707575364228" cx="212.83236604469752" cy="30.11914610958124" opacity="0.2564457154319157"></circle><circle r="2.901308204569975" cx="530.0853924668589" cy="541.2986454387154" opacity="0.103715596105266"></circle><circle r="5.5291170401379945" cx="363.20799552758984" cy="638.8714275260369" opacity="0.6492265883505658"></circle><circle r="3.161446054032433" cx="9.87371212733772" cy="688.0815063111077" opacity="0.6714402996139174"></circle><circle r="6.404614296601975" cx="688.5478658319153" cy="598.2122739593572" opacity="0.4075862910478849"></circle><circle r="5.492409880533211" cx="283.6708975199213" cy="166.96369357423978" opacity="0.4495774807863303"></circle><circle r="4.427332970631487" cx="781.8670660014068" cy="665.4126164031438" opacity="0.971536260763657"></circle><circle r="5.20240448566439" cx="568.2720475516107" cy="626.7052966536864" opacity="0.7440147999112685"></circle><circle r="5.887677724441227" cx="96.35586984370775" cy="57.08986355684237" opacity="0.9073235112995979"></circle><circle r="6.862137642933363" cx="621.5298901762704" cy="438.5175154487252" opacity="0.35444627395004236"></circle><circle r="7.022460261802591" cx="712.944958180967" cy="706.5832333177261" opacity="0.5065014925298342"></circle><circle r="5.816085419983603" cx="218.3896158956484" cy="752.9758331953633" opacity="0.2570122037307032"></circle><circle r="2.7114337238020734" cx="584.0250983432827" cy="7.8957128776309" opacity="0.20668942161556958"></circle><circle r="5.857819559486664" cx="753.5185666635101" cy="495.58826414515687" opacity="0.7785341604777956"></circle><circle r="6.391420574191178" cx="478.6163362017806" cy="272.33538910296596" opacity="0.8180527208530307"></circle><circle r="5.159836818582961" cx="620.2563898004229" cy="393.80193191081156" opacity="0.8066434266476737"></circle><circle r="6.496111491540571" cx="190.75080697094268" cy="783.8451554706041" opacity="0.6662295089681856"></circle><circle r="3.853909917556971" cx="15.126655640714441" cy="454.4934063250508" opacity="0.1475706237209992"></circle><circle r="7.232217581251275" cx="471.7458101584254" cy="674.4119156833582" opacity="0.8616878631730032"></circle><circle r="6.191992751814644" cx="588.0111257650328" cy="254.1498619863427" opacity="0.7036761410848813"></circle><circle r="4.91127190396226" cx="416.0637917561519" cy="267.34698862259165" opacity="0.7227873848337191"></circle><circle r="4.166778517471898" cx="132.73157896818313" cy="552.770084230103" opacity="0.1401061900431465"></circle><circle r="7.941207118830139" cx="533.4129703202153" cy="459.9125045605732" opacity="0.953829987245328"></circle><circle r="5.285610005903283" cx="569.4023091070236" cy="335.06977821100384" opacity="0.13070636754943832"></circle><circle r="8.204313284509176" cx="406.3424809852991" cy="623.9737612832284" opacity="0.37226253804555864"></circle><circle r="7.902844193946626" cx="581.1746673001496" cy="54.17821679457631" opacity="0.2817181934396973"></circle><circle r="6.813630124260899" cx="240.29277365252685" cy="337.49070534671216" opacity="0.3336979800337227"></circle><circle r="6.623803550042043" cx="153.834232035427" cy="81.37142089440195" opacity="0.6459746676860354"></circle><circle r="5.9131370902900855" cx="15.41848939878532" cy="184.0730068343718" opacity="0.21679381384577895"></circle><circle r="6.065440097596979" cx="71.66980147604414" cy="147.77057645313957" opacity="0.7902216717047962"></circle><circle r="4.624707335071991" cx="503.15986548557277" cy="566.3575241321669" opacity="0.8906307291761458"></circle><circle r="5.14677036673396" cx="474.8395882358418" cy="565.8573155641003" opacity="0.663429391044173"></circle><circle r="4.97235727975044" cx="463.2152826453817" cy="353.60117121802324" opacity="0.5825033731500864"></circle><circle r="5.741511091621763" cx="704.1289655327001" cy="229.76899667656318" opacity="0.3099173919854104"></circle><circle r="5.708192786502279" cx="40.34396442841359" cy="12.003229837648764" opacity="0.9654360181426267"></circle><circle r="4.5623132276812335" cx="162.64870286046022" cy="736.2483732621051" opacity="0.5947963633238382"></circle><circle r="4.273643136630486" cx="298.91192226856526" cy="337.9567553979021" opacity="0.25098267563631993"></circle><circle r="5.2016418491703975" cx="456.14596283552635" cy="83.59397909103815" opacity="0.8078787542069373"></circle><circle r="3.5795848743446004" cx="569.5594151885329" cy="364.2586573127215" opacity="0.8424118711409561"></circle><circle r="3.521616322113371" cx="297.4178579828029" cy="293.7175030697115" opacity="0.36616556097651864"></circle><circle r="3.18896120565817" cx="567.3276711244514" cy="424.0909310091533" opacity="0.18701451738801272"></circle><circle r="7.054645888903539" cx="280.90785163662866" cy="711.2973094345882" opacity="0.43279956889511195"></circle><circle r="3.8143757861354657" cx="91.92842815251247" cy="240.61167879177125" opacity="0.3650717131049378"></circle><circle r="5.17094440794979" cx="747.835815916762" cy="176.41165672349095" opacity="0.8554278588933223"></circle><circle r="7.693010762534504" cx="462.2242431769968" cy="487.9557959324005" opacity="0.28404792110710564"></circle><circle r="5.321443847711622" cx="785.0142677706497" cy="275.3599057719467" opacity="0.42205159282727267"></circle><circle r="8.69018859943302" cx="781.5153345632505" cy="463.6402620105576" opacity="0.9602146455329581"></circle><circle r="5.0687017460081565" cx="518.6518950628245" cy="376.0235949868023" opacity="0.6046685989398574"></circle><circle r="5.847575904397377" cx="515.749855001005" cy="217.53815697273467" opacity="0.5892222528457174"></circle><circle r="8.703633793279849" cx="383.33209873885824" cy="84.46336249128284" opacity="0.6531270590833438"></circle><circle r="3.799366458211063" cx="447.9614550924187" cy="555.6934899538742" opacity="0.8481984155059686"></circle><circle r="6.9976416138728865" cx="526.9934823846475" cy="731.1363318377827" opacity="0.10326358713996005"></circle><circle r="3.0770564336593362" cx="393.1838601404927" cy="784.6071635862323" opacity="0.44990868065495615"></circle><circle r="5.94628246819399" cx="301.6462077083766" cy="411.7467014437263" opacity="0.6616789227978018"></circle><circle r="2.6632386158514065" cx="783.0117676974463" cy="714.0079652953408" opacity="0.6918057251809503"></circle><circle r="4.686299618318413" cx="572.2916404706137" cy="392.60923617285744" opacity="0.75719299226905"></circle><circle r="4.6196384228385" cx="14.060551392173107" cy="371.74065521903555" opacity="0.34581169273613754"></circle><circle r="3.543490349013321" cx="432.3249594017706" cy="62.05626604527894" opacity="0.7826962632888828"></circle><circle r="4.624909052229748" cx="82.71997268428352" cy="509.37747040894567" opacity="0.2728833927793618"></circle><circle r="4.361870642146863" cx="497.13591035116985" cy="686.9685579415559" opacity="0.3152473425805638"></circle><circle r="6.212460794857833" cx="725.4638930614005" cy="96.96616206419166" opacity="0.8313567629378019"></circle><circle r="4.174497736103806" cx="341.52392126534227" cy="549.5930035756061" opacity="0.9287496707747614"></circle><circle r="6.866761200378637" cx="54.16340458558696" cy="539.6729604283997" opacity="0.4611972031135654"></circle><circle r="4.90419918053405" cx="727.6666778777852" cy="529.9002070933695" opacity="0.9944344227413697"></circle><circle r="5.656717207363474" cx="307.2751824611436" cy="731.0760548816718" opacity="0.41749579431739137"></circle><circle r="6.959970442510742" cx="647.0457467298983" cy="772.7845839010726" opacity="0.3589578540679469"></circle><circle r="4.512505364791441" cx="626.5196901149377" cy="502.2416905788015" opacity="0.5840634596856543"></circle><circle r="5.058134115514129" cx="441.6766656574034" cy="209.7610234746897" opacity="0.31005809894119113"></circle><circle r="7.0066874215050845" cx="81.26731695147336" cy="326.0115563562804" opacity="0.9381762321398103"></circle><circle r="5.371347370635793" cx="363.62482819883576" cy="607.0659297909267" opacity="0.8125587187239485"></circle><circle r="6.941046969871161" cx="586.5656037321929" cy="551.7303267985934" opacity="0.8413963389991961"></circle><circle r="4.6641313509861195" cx="212.42301246266237" cy="518.5902797416422" opacity="0.6487640771329768"></circle><circle r="3.7921758452048735" cx="315.6307126310063" cy="360.62422902149916" opacity="0.4489430204814613"></circle><circle r="6.106845291411198" cx="635.4583828270829" cy="263.96361561762023" opacity="0.4338543841113348"></circle><circle r="6.428430979836222" cx="494.5532252649334" cy="97.74307724289264" opacity="0.32896444485896975"></circle><circle r="4.8226007145665495" cx="140.24688096685315" cy="277.6319576674239" opacity="0.22310093837307565"></circle><circle r="5.180227481314207" cx="675.4924330501266" cy="542.6623572664272" opacity="0.7454382861676222"></circle><circle r="4.8534611197177995" cx="565.3543113285943" cy="22.196706682193852" opacity="0.7775350876818693"></circle><circle r="6.421920144911022" cx="722.159113240552" cy="27.26961309619413" opacity="0.3565811197378034"></circle><circle r="5.520709650022572" cx="775.0742954629013" cy="229.34989377343425" opacity="0.3388582518884611"></circle><circle r="6.363623372653008" cx="124.30348330847006" cy="676.3878539392501" opacity="0.10321711164722927"></circle><circle r="7.977000149716819" cx="494.12869249312547" cy="343.38351207066546" opacity="0.3507900007219701"></circle><circle r="3.581673139374892" cx="126.40306916568663" cy="87.12775216263498" opacity="0.9269830662721338"></circle><circle r="5.727192613288533" cx="114.37192772612512" cy="615.7312456760028" opacity="0.7181780105459511"></circle><circle r="5.961089262966992" cx="773.433081849657" cy="738.5829340122408" opacity="0.4604087475466031"></circle><circle r="3.930897889497484" cx="654.3725038940373" cy="535.3540718683379" opacity="0.27434388538521404"></circle><circle r="4.132969628360934" cx="618.3657388456045" cy="756.984551506141" opacity="0.9884872523584916"></circle><circle r="3.47386664363239" cx="548.7482733973914" cy="436.92758239071753" opacity="0.10003842415664264"></circle><circle r="6.267760049718438" cx="401.96766989860646" cy="210.26439831380907" opacity="0.559220357150309"></circle><circle r="4.830349249000721" cx="268.80028333241273" cy="277.05396420156706" opacity="0.44847314122098003"></circle><circle r="5.067325474524553" cx="276.3680710505014" cy="221.3578390457092" opacity="0.5143738897748814"></circle><circle r="5.063650864500585" cx="318.1794894844058" cy="455.02155042493166" opacity="0.17204488442978036"></circle><circle r="7.853637963777979" cx="700.2835682207675" cy="68.19461656903292" opacity="0.329570787554525"></circle><circle r="6.7605779179195995" cx="732.7871596464706" cy="590.4405919051272" opacity="0.45980883032118836"></circle><circle r="4.565227243603023" cx="271.45072690457715" cy="138.23826964390622" opacity="0.5780745927426538"></circle><circle r="3.8888503530390324" cx="786.406004593153" cy="200.17396894659063" opacity="0.7024837279174142"></circle><circle r="5.676890851443479" cx="643.7655107408181" cy="670.0026026699186" opacity="0.23381385062156626"></circle><circle r="3.1675270006182292" cx="566.448577626371" cy="256.18504128230484" opacity="0.8040244174098234"></circle><circle r="8.603751655406066" cx="777.3809742380731" cy="336.35281806025864" opacity="0.9506794685784844"></circle><circle r="4.843692900639481" cx="679.0239945863369" cy="413.11047710193253" opacity="0.5580339417917579"></circle><circle r="4.594037135173966" cx="324.2230945415574" cy="790.6533709123914" opacity="0.9708175758113157"></circle><circle r="7.889796909200933" cx="15.421561393607796" cy="34.842614816564954" opacity="0.8950900849885981"></circle><circle r="2.9140639541099955" cx="226.02981094081898" cy="470.1628225144462" opacity="0.10338403801250765"></circle><circle r="4.530921261382827" cx="549.1267318248833" cy="69.68238932776406" opacity="0.2883536079649508"></circle><circle r="3.3394488333106827" cx="593.9815776434801" cy="764.5805325464249" opacity="0.4235338069685287"></circle><circle r="4.311799681976965" cx="410.58106249957774" cy="690.8622228985118" opacity="0.9252467381329881"></circle><circle r="4.706614262553234" cx="578.2109306767267" cy="601.6370377608933" opacity="0.5083085644955507"></circle><circle r="5.344850698755777" cx="334.07575064844787" cy="587.9073346718249" opacity="0.802653201884482"></circle><circle r="10.019066331149038" cx="652.2299259812122" cy="572.7345820526452" opacity="0.6348515942767875"></circle><circle r="5.154712319222243" cx="608.0286439358406" cy="485.99956616741594" opacity="0.24990467215440515"></circle><circle r="7.320257127858592" cx="238.01694475562138" cy="782.7065066061386" opacity="0.8650928887959909"></circle><circle r="4.651138331943597" cx="194.34759016632663" cy="166.03406511522914" opacity="0.5127230348490159"></circle><circle r="7.796890528384985" cx="641.4539536558308" cy="305.9180936394673" opacity="0.5446053004218424"></circle><circle r="5.1912566770031185" cx="782.0632453652113" cy="385.64497624847206" opacity="0.2670325429346424"></circle><circle r="5.2261290667282285" cx="562.3047935331667" cy="659.1022807792568" opacity="0.16948368280237874"></circle><circle r="6.539905748027778" cx="459.71747128417894" cy="782.5131198982423" opacity="0.7769914908481469"></circle><circle r="3.7012069884326086" cx="611.486538551266" cy="788.3013264583388" opacity="0.3878246736396306"></circle><circle r="6.8277418948077635" cx="555.879045116715" cy="777.2105346252274" opacity="0.5861370142701132"></circle><circle r="9.867950554671093" cx="227.33070714734447" cy="73.7715759374636" opacity="0.9966475105186101"></circle><circle r="5.1285331944737464" cx="679.6759937891477" cy="107.44166701806358" opacity="0.748333509038516"></circle><circle r="4.481369840747863" cx="622.3477694308888" cy="730.4803394334681" opacity="0.5295181978455529"></circle><circle r="6.568363845154099" cx="392.27920888627494" cy="518.0866576776809" opacity="0.1428247622369822"></circle><circle r="4.007377814201229" cx="545.2274558145479" cy="407.13553659518635" opacity="0.801346079195395"></circle><circle r="5.4354739391386255" cx="593.2144707356124" cy="151.5965265440601" opacity="0.20174871322512972"></circle><circle r="5.863822722432908" cx="539.1623398317779" cy="695.3043981471743" opacity="0.49766501495130033"></circle><circle r="2.669571771431534" cx="119.00325054324719" cy="737.6552222491107" opacity="0.10177678927425968"></circle><circle r="5.86276390256903" cx="458.54674014706694" cy="719.4986345673482" opacity="0.12549179171431676"></circle><circle r="4.076078254523703" cx="681.990794126204" cy="10.360791648902502" opacity="0.5880778260813876"></circle><circle r="6.716305241569248" cx="278.0019661932427" cy="525.8984299596749" opacity="0.5717994236744289"></circle><circle r="4.842492113048681" cx="39.61200117352156" cy="475.7989778244492" opacity="0.9058414301088649"></circle><circle r="3.8909755481229613" cx="360.34634249738644" cy="786.7469265819886" opacity="0.20010260739891345"></circle><circle r="5.505251161036874" cx="154.8365383090233" cy="336.13437742006084" opacity="0.832651816836381"></circle><circle r="5.85823044538199" cx="423.57159344589337" cy="529.8279431856129" opacity="0.48952410549637926"></circle><circle r="5.737035484235861" cx="665.0351185064205" cy="500.1720911302921" opacity="0.6941480875528266"></circle><circle r="4.666098039423128" cx="221.31990749698738" cy="278.27676086211915" opacity="0.42944051438802644"></circle><circle r="5.6086340474657685" cx="631.844513231316" cy="12.441830195048853" opacity="0.8014778276040028"></circle><circle r="7.300277991061858" cx="778.9484791440012" cy="168.9785947386807" opacity="0.32758219074926537"></circle><circle r="7.0399877914653874" cx="315.8757536822722" cy="71.56732210434706" opacity="0.9722711459641687"></circle><circle r="8.449085478090458" cx="380.09626733355753" cy="270.23148695705964" opacity="0.3869911364764357"></circle><circle r="5.6685202356868984" cx="610.5664621631629" cy="233.481437012062" opacity="0.6123448002826255"></circle><circle r="3.7481299856104684" cx="789.8775391061527" cy="768.6016482606907" opacity="0.8021914809461091"></circle><circle r="4.250424111411471" cx="356.9513221122858" cy="317.39145665280114" opacity="0.8107881506768493"></circle><circle r="4.6747972878991035" cx="761.7839285543519" cy="84.17317779122759" opacity="0.47205202620019426"></circle><circle r="4.614366540929094" cx="629.6747772681493" cy="38.173016642967845" opacity="0.36555220749888706"></circle><circle r="5.78764359127536" cx="369.57825250589417" cy="399.9771652476423" opacity="0.4614479201800168"></circle><circle r="5.570745393131727" cx="26.877884892226376" cy="149.1037125883405" opacity="0.7205271417661205"></circle><circle r="5.198976100173576" cx="380.1339752085593" cy="724.6471450116649" opacity="0.9743493524292335"></circle><circle r="8.720443520236467" cx="354.96673482519117" cy="21.492124954977157" opacity="0.6845371950854026"></circle><circle r="6.034768679014313" cx="620.7283163793112" cy="65.94565604524264" opacity="0.11554863943334237"></circle><circle r="4.905105582361698" cx="316.65467626914386" cy="559.0876738970339" opacity="0.5115405771925106"></circle><circle r="7.003775713931397" cx="537.3655939012708" cy="189.5243978697099" opacity="0.8127933729406315"></circle><circle r="4.066929996681715" cx="748.75154397895" cy="647.4416215262688" opacity="0.476341923512553"></circle><circle r="5.366347812556874" cx="347.9325161903561" cy="281.773573538761" opacity="0.38018203072346946"></circle><circle r="5.527212083805129" cx="716.3840265119143" cy="191.92347180271068" opacity="0.6542261776998366"></circle><circle r="3.67198947331204" cx="529.2811751622377" cy="103.86319273117854" opacity="0.9704510947422829"></circle><circle r="3.1980653803304597" cx="269.7337407150944" cy="186.76006739590738" opacity="0.6810785191015298"></circle><circle r="9.164189235484322" cx="416.3327436689202" cy="344.4743487522231" opacity="0.8474948718218953"></circle><circle r="3.376956012566869" cx="787.5006689135249" cy="25.873370764059576" opacity="0.45063182355988074"></circle><circle r="5.117369385445139" cx="164.73171368589422" cy="701.5463019242873" opacity="0.7878509182065314"></circle><circle r="7.634058190401193" cx="717.6273039414428" cy="409.0252720393848" opacity="0.37207383012181783"></circle><circle r="8.869218677829092" cx="679.5049779419611" cy="371.2659459819308" opacity="0.29091378257507416"></circle><circle r="4.744227583077998" cx="409.29210742841343" cy="762.896857833248" opacity="0.19413336473853426"></circle><circle r="3.341069247822005" cx="393.6079975275227" cy="181.14321560932666" opacity="0.7343963104009833"></circle><circle r="6.718371632531645" cx="188.82478835018742" cy="82.06086200086625" opacity="0.6430483668641853"></circle><circle r="4.116721161705208" cx="455.8137448114969" cy="147.16231482003457" opacity="0.3390117947971682"></circle><circle r="3.4277431701182124" cx="463.1163254844894" cy="747.7956856113886" opacity="0.5138118689286608"></circle><circle r="6.634442368444976" cx="444.2474777941101" cy="373.40204276024747" opacity="0.1537395655003327"></circle><circle r="5.547565946938714" cx="572.1400144184653" cy="500.68940999587835" opacity="0.719759714909286"></circle><circle r="7.509802773116145" cx="18.247128248959637" cy="323.33279336899864" opacity="0.42326460598907234"></circle><circle r="4.435435199296712" cx="322.8097057307486" cy="409.2216536378232" opacity="0.9765628026859337"></circle><circle r="3.0075718146020853" cx="545.5370313555726" cy="137.75086772333066" opacity="0.4997155962337809"></circle><circle r="8.94711287661086" cx="326.63169170325585" cy="656.600759093912" opacity="0.5030255162580055"></circle><circle r="6.142913351068096" cx="149.016802759453" cy="778.1939528984332" opacity="0.7311117690471812"></circle><circle r="5.339594456746156" cx="13.346927248770713" cy="554.8205007170012" opacity="0.7338915591010896"></circle><circle r="4.920046232186827" cx="121.3850525546286" cy="12.388378754776962" opacity="0.7675361482962023"></circle><circle r="4.8894043208268085" cx="226.36601631976507" cy="649.079817884384" opacity="0.6006259432053396"></circle><circle r="6.1555631190772" cx="431.86699733776186" cy="760.3505115903282" opacity="0.37757762957060403"></circle><circle r="11.09758105965128" cx="119.42980567121329" cy="362.5542275286241" opacity="0.1183160361795503"></circle><circle r="7.04926172333246" cx="249.31024695293658" cy="632.5609361399469" opacity="0.9204780351678788"></circle><circle r="6.348874204236431" cx="294.2484642833806" cy="587.6047136167026" opacity="0.19893902111383888"></circle><circle r="3.0908373807711405" cx="653.6270165974362" cy="6.778623522336815" opacity="0.6306013916051804"></circle><circle r="6.066062901921219" cx="415.547154149207" cy="726.9589331519284" opacity="0.7739337886784289"></circle><circle r="5.271655414958333" cx="606.6441568984594" cy="21.73233290383666" opacity="0.14732298399526217"></circle><circle r="7.408041889972045" cx="669.3104112292249" cy="336.99596324818316" opacity="0.397527592390702"></circle><circle r="5.375619603911726" cx="146.58039923708736" cy="612.0525661333838" opacity="0.9825639133327074"></circle><circle r="6.407432178775128" cx="722.2449184674846" cy="495.67431387640596" opacity="0.6843407167772284"></circle><circle r="6.713023645657863" cx="310.5907625324157" cy="100.9526679693127" opacity="0.2231097806182833"></circle><circle r="7.567780084260649" cx="104.24390175625093" cy="284.90836524343257" opacity="0.6832909668687007"></circle><circle r="4.081910513787564" cx="579.0362589355054" cy="789.4638306350248" opacity="0.3355105056926141"></circle><circle r="5.327916309416374" cx="44.12187995800852" cy="597.8100163818552" opacity="0.10371432704438266"></circle><circle r="4.937661435218889" cx="143.00508397025274" cy="251.32228045712347" opacity="0.6194998706763019"></circle><circle r="3.857669951870436" cx="95.13712452385148" cy="25.17311579880203" opacity="0.7802793770032265"></circle><circle r="6.755796312642608" cx="621.1148392765501" cy="694.968118873051" opacity="0.46407188654107423"></circle><circle r="5.617941986031706" cx="53.85964078749809" cy="297.0654111922361" opacity="0.4448180419157459"></circle><circle r="2.9785272332433053" cx="145.55240601310825" cy="713.594543426" opacity="0.2840562238415738"></circle><circle r="5.061176989074826" cx="398.2613247505246" cy="131.3258445959565" opacity="0.4103738194682318"></circle><circle r="5.001567674853659" cx="681.736642172922" cy="43.53117965131692" opacity="0.5813577373716915"></circle><circle r="5.025939662477821" cx="606.6948820509823" cy="199.09757915268602" opacity="0.24910680233400484"></circle><circle r="3.981861848618144" cx="236.59823501876554" cy="454.17519923423094" opacity="0.954156580773139"></circle><circle r="7.447758663391403" cx="261.7939555413982" cy="97.00001307627737" opacity="0.16204904592696107"></circle><circle r="4.324434118438721" cx="501.1112351333423" cy="413.56055966606823" opacity="0.7002860283822013"></circle><circle r="4.134670465154132" cx="230.81546534863358" cy="546.4061765316721" opacity="0.6924642266840831"></circle><circle r="3.770715076739563" cx="270.6833485678546" cy="378.53393529960357" opacity="0.25521396667318463"></circle><circle r="4.360776440080266" cx="633.2318950966354" cy="529.0977941268726" opacity="0.3208650440849391"></circle><circle r="6.532230454219731" cx="418.6966574008633" cy="560.8988184801952" opacity="0.6553673807198018"></circle><circle r="4.815488237683142" cx="766.1635501647181" cy="621.5070481035177" opacity="0.5338736931803187"></circle><circle r="5.45815639732635" cx="425.96982509217383" cy="394.0492906951465" opacity="0.8756594258825052"></circle><circle r="5.436789190375643" cx="190.83194544561093" cy="697.0433243322589" opacity="0.5137372970739811"></circle><circle r="5.023857000681101" cx="786.3405483675749" cy="138.38698129068433" opacity="0.8083274220780499"></circle><circle r="4.228584382957417" cx="683.5165564541905" cy="280.2189094392693" opacity="0.22150771545766787"></circle><circle r="4.744635875131491" cx="359.5046507326942" cy="527.5106826329794" opacity="0.6626036664617839"></circle><circle r="4.571365121213653" cx="217.06642943102105" cy="116.271153959072" opacity="0.15535564344148015"></circle><circle r="2.81695608458655" cx="487.3510687352984" cy="516.2178545051144" opacity="0.6433795202595687"></circle><circle r="6.774720367425081" cx="640.5006339056681" cy="220.8237857006259" opacity="0.8277021993095366"></circle><circle r="5.839852520381533" cx="430.73599048045764" cy="421.02606129798545" opacity="0.24326910667245666"></circle><circle r="6.919864136688062" cx="668.6772178829265" cy="237.21925136822992" opacity="0.7871657099441048"></circle><circle r="4.5016794968892455" cx="219.8751686686032" cy="682.5509180329179" opacity="0.7065134646794573"></circle><circle r="4.956240874043123" cx="20.375085934206233" cy="789.8156735531289" opacity="0.2640609414988553"></circle><circle r="5.756902371805625" cx="539.6198764438846" cy="495.6691325125371" opacity="0.4733257844163775"></circle><circle r="8.4272513959865" cx="260.24371582516795" cy="744.0206882818327" opacity="0.824206436848062"></circle><circle r="4.31924820535653" cx="300.4765005493334" cy="241.3395064459057" opacity="0.3558443529573081"></circle><circle r="5.902960253812575" cx="178.69228059222783" cy="268.88992263400695" opacity="0.5342973600249407"></circle><circle r="6.443128953567113" cx="15.95911351783015" cy="230.6793306060147" opacity="0.47588091934801413"></circle><circle r="5.725323202899315" cx="84.98739212881787" cy="266.69070753319073" opacity="0.3949727330594712"></circle><circle r="3.7065795899401768" cx="119.29661005000719" cy="786.363773825969" opacity="0.14284281900543766"></circle><circle r="4.271495411950932" cx="426.90695118770805" cy="184.62982880754936" opacity="0.962345537439007"></circle><circle r="5.095678223948452" cx="690.1886464391715" cy="501.29088645939487" opacity="0.8556042398862188"></circle><circle r="3.9245479522336755" cx="220.14827948805956" cy="611.9745062266372" opacity="0.6797986810862604"></circle><circle r="3.5952935582323473" cx="409.67973990455243" cy="108.80032919415873" opacity="0.8233417305991038"></circle><circle r="4.073100656354856" cx="450.98735759019553" cy="516.4634433934659" opacity="0.5144612143520847"></circle><circle r="4.149237207061145" cx="151.95152358139222" cy="305.41829014713863" opacity="0.2020513852609119"></circle><circle r="7.549900362118424" cx="685.8748339814856" cy="313.69237855213845" opacity="0.4542512198615599"></circle><circle r="2.403998693528007" cx="792.846291925967" cy="697.9896161093156" opacity="0.4104397588931792"></circle><circle r="3.88966518130074" cx="710.8089793954776" cy="289.0797114502926" opacity="0.14075169847794713"></circle><circle r="5.73715603658554" cx="118.12333378312782" cy="317.0340281093914" opacity="0.5313886649867875"></circle><circle r="5.057452185646133" cx="70.84179670904183" cy="205.4168657711855" opacity="0.38060404586508534"></circle><circle r="7.477236885825588" cx="296.12918426986425" cy="681.889046132155" opacity="0.9541419669347995"></circle><circle r="5.344744570929407" cx="275.3943103919061" cy="58.557637481886005" opacity="0.9872850588865043"></circle><circle r="1.9604441170429667" cx="381.528305762644" cy="793.3314844742046" opacity="0.47446346825194274"></circle><circle r="5.6031303087224895" cx="126.64623833564971" cy="170.7255483436957" opacity="0.2335851083180783"></circle><circle r="6.021336443443634" cx="648.4808059692425" cy="404.7770484322648" opacity="0.9737999822598372"></circle><circle r="10.447853134082731" cx="55.4787753387946" cy="434.2190331447315" opacity="0.629538125575416"></circle><circle r="5.135151094846934" cx="391.01763727328677" cy="15.731166933374215" opacity="0.7530074876917275"></circle><circle r="7.73120324348108" cx="319.1601142587854" cy="39.290823882085405" opacity="0.4434409710095911"></circle><circle r="3.933023097138651" cx="488.48379368870394" cy="153.62209130696584" opacity="0.6190498273939684"></circle><circle r="8.847884475905978" cx="75.04583591798536" cy="606.110907486625" opacity="0.7750127105257552"></circle><circle r="4.726646230434215" cx="212.9891363398345" cy="314.92967835201574" opacity="0.13958740553306417"></circle><circle r="9.088293764335718" cx="88.52226456117147" cy="466.15436038113205" opacity="0.4854407681594294"></circle><circle r="5.854014267690056" cx="665.8852703903601" cy="202.58168714989182" opacity="0.21968401812893124"></circle><circle r="4.312162290200928" cx="442.2314152698934" cy="689.1468994818321" opacity="0.5445458712291917"></circle><circle r="6.7660044543881686" cx="400.29681684290216" cy="47.36555986754317" opacity="0.46658356064164563"></circle><circle r="3.567012292405003" cx="524.3103135701261" cy="259.8517380534202" opacity="0.4542916863659201"></circle><circle r="5.458424249525404" cx="12.159110731818707" cy="93.86296006398106" opacity="0.2670508301241162"></circle><circle r="4.471760534670446" cx="444.779528566959" cy="241.75002543671718" opacity="0.8231784422334739"></circle><circle r="6.520997912236284" cx="674.5158594805089" cy="171.04784608928904" opacity="0.5503428475418269"></circle><circle r="5.710898490190658" cx="254.05886732668364" cy="600.5966234484417" opacity="0.3120627854696385"></circle><circle r="5.527422211831169" cx="462.8764322642754" cy="179.41114482858734" opacity="0.154755738809037"></circle><circle r="6.943800936209833" cx="750.5200487583521" cy="677.7897035316724" opacity="0.16075394515839983"></circle><circle r="6.95613590356078" cx="42.90409059359925" cy="202.99057675535698" opacity="0.39474142624843467"></circle><circle r="5.284702419749408" cx="609.831719765805" cy="364.9479443252329" opacity="0.8956405676045649"></circle><circle r="6.064064823949932" cx="47.038946682444866" cy="780.9002111948093" opacity="0.8214016829830181"></circle><circle r="3.382039086598198" cx="389.4105429437675" cy="762.4213187373975" opacity="0.7694144530055088"></circle><circle r="5.372754511209047" cx="321.72110005823305" cy="264.9517108266116" opacity="0.6372608443596343"></circle><circle r="4.342321571526247" cx="459.3055360279561" cy="407.83326760987813" opacity="0.9211053653026308"></circle><circle r="7.439371598545156" cx="437.301744483117" cy="123.32291447561134" opacity="0.675075534163682"></circle><circle r="4.443661464103436" cx="617.2565927030819" cy="581.4733242214854" opacity="0.3971481250537079"></circle><circle r="7.4195862840457885" cx="568.9606808708614" cy="217.43876493599166" opacity="0.6276169411414259"></circle><circle r="4.27168595852349" cx="254.4797376379038" cy="426.73658643389365" opacity="0.47634436032304484"></circle><circle r="7.125855102646799" cx="52.67453253423448" cy="245.42060698194925" opacity="0.7850880681899669"></circle><circle r="3.622645863488029" cx="522.6406386168745" cy="82.32286752341513" opacity="0.6540109429712849"></circle><circle r="4.020759406062896" cx="529.3920394737489" cy="765.4841345724245" opacity="0.8582942511830981"></circle><circle r="8.122531724737957" cx="493.50640078237063" cy="63.92968891884397" opacity="0.8538868621004793"></circle><circle r="5.062956569058841" cx="511.84067577021364" cy="125.36816007709544" opacity="0.463101589911048"></circle><circle r="4.914500504095799" cx="169.48779277708948" cy="12.706688763078795" opacity="0.6636007211195499"></circle><circle r="4.202436083812529" cx="72.993333033133" cy="569.2913433721362" opacity="0.5265263634243246"></circle><circle r="3.7556534826467076" cx="785.5645984066879" cy="557.6402461331558" opacity="0.9857670053481362"></circle><circle r="5.0793766699739855" cx="185.4803218332882" cy="622.4359911376483" opacity="0.9815466341303838"></circle><circle r="5.808167866916154" cx="537.815976841986" cy="313.2146450649682" opacity="0.15990989301820024"></circle><circle r="5.110984822134357" cx="166.16400030873976" cy="527.1605765406152" opacity="0.7462308581376855"></circle><circle r="7.182976941201394" cx="620.9118146011873" cy="143.99617977769205" opacity="0.15846198629650876"></circle><circle r="5.066784683019224" cx="43.10050647755808" cy="392.6045538027046" opacity="0.5079250720727299"></circle><circle r="4.516322071510249" cx="161.1280700327359" cy="553.1540896105405" opacity="0.2603445215116163"></circle><circle r="3.587157944970695" cx="423.29244910267835" cy="789.6471774797526" opacity="0.5406836964592564"></circle><circle r="5.233153985043077" cx="61.17787123867725" cy="762.5144249610157" opacity="0.7075229292933253"></circle><circle r="7.752673403654919" cx="415.94826876122363" cy="492.4166893709587" opacity="0.7554685735457357"></circle><circle r="5.279057039044233" cx="544.8946316086123" cy="557.5342019443875" opacity="0.22638117140556183"></circle><circle r="8.53049578171769" cx="145.73957324842596" cy="444.3842126040555" opacity="0.2948291588032915"></circle><circle r="3.7684639762547736" cx="527.3339487853169" cy="590.8728209302706" opacity="0.830086936851968"></circle><circle r="5.9527156773552194" cx="114.99291706294795" cy="199.84937608626453" opacity="0.9969990470755579"></circle><circle r="7.067765267723974" cx="663.9803376190275" cy="724.733193319357" opacity="0.2340302236476648"></circle><circle r="5.241395185915709" cx="657.5295515385758" cy="622.544580454344" opacity="0.486425522078622"></circle><circle r="7.44342215250102" cx="169.35481858784627" cy="44.13231373707372" opacity="0.771980006893836"></circle><circle r="10.05782550116778" cx="181.487254802174" cy="415.4771451800521" opacity="0.7604972744510217"></circle><circle r="5.134824693500117" cx="95.97332086075664" cy="84.67027011307587" opacity="0.8305255648813938"></circle><circle r="4.284854673559362" cx="367.0229002629479" cy="754.9447691733125" opacity="0.17818376702213629"></circle><circle r="6.612390875192543" cx="636.1131393325088" cy="348.2686064244975" opacity="0.3527565105687277"></circle><circle r="4.57273592809277" cx="391.03832728839654" cy="551.8112686855625" opacity="0.2722067413831158"></circle><circle r="5.441219017314386" cx="486.1647068930171" cy="128.06808400384458" opacity="0.6081405464650533"></circle><circle r="6.925833919076458" cx="528.0473538540901" cy="24.53212814168525" opacity="0.3998564282863255"></circle><circle r="4.425402490916922" cx="425.5988575116354" cy="157.5386208369289" opacity="0.24268050066147734"></circle><circle r="7.075208429188661" cx="430.7610319670102" cy="593.555678291402" opacity="0.7701998269050014"></circle><circle r="5.464313391051877" cx="482.01290856737216" cy="209.32963579742534" opacity="0.5695898328879104"></circle><circle r="4.852911448124814" cx="747.4335611056243" cy="610.4524555169065" opacity="0.9269865868833762"></circle><circle r="3.9195311083301134" cx="612.0362867105781" cy="537.5151700719294" opacity="0.7451946707265825"></circle><circle r="6.073192723647184" cx="583.4106308319086" cy="579.3703283963838" opacity="0.8390458359398023"></circle><circle r="6.423951650602815" cx="528.3612863258618" cy="340.23941108280434" opacity="0.26646397852053366"></circle><circle r="5.9092856599330865" cx="373.46169703951136" cy="578.0236522667161" opacity="0.5409585526320367"></circle><circle r="5.393573831882948" cx="785.5324021562549" cy="638.3451925655888" opacity="0.19923641744315757"></circle><circle r="7.03222684175479" cx="527.1994558073417" cy="632.6572293154917" opacity="0.31637034543414255"></circle><circle r="6.939780456339568" cx="160.0564035010285" cy="169.62803085240122" opacity="0.5162264093788609"></circle><circle r="4.255658378412421" cx="98.49275205928934" cy="135.59767103820954" opacity="0.553677195388722"></circle><circle r="5.542663201163265" cx="342.45664757207766" cy="346.57262274597815" opacity="0.22100853502929452"></circle><circle r="5.899425035770859" cx="48.9612507854889" cy="505.5637911891328" opacity="0.6411001750188574"></circle><circle r="5.0259401032744115" cx="765.7790493987696" cy="116.60577415335247" opacity="0.2415337213391879"></circle><circle r="6.23682006001699" cx="217.6285707359454" cy="424.3390445009635" opacity="0.6727626294808132"></circle><circle r="6.172977099926483" cx="692.3275373834965" cy="763.942589062509" opacity="0.75394511504562"></circle><circle r="5.555466523949098" cx="776.6550203922639" cy="425.0521524515349" opacity="0.9681617900943559"></circle><circle r="5.373173583586256" cx="606.2396677500827" cy="297.67197442476623" opacity="0.24855799723492128"></circle><circle r="5.240344924500908" cx="753.0322185607494" cy="14.942128352351851" opacity="0.8964722145593197"></circle><circle r="5.220646363082153" cx="240.5001823737049" cy="381.4162709786927" opacity="0.5773351592412908"></circle><circle r="5.223116286723077" cx="398.02209609241135" cy="588.7759896064732" opacity="0.6047162769067301"></circle><circle r="3.954823811130662" cx="191.2684797747502" cy="238.78705482547392" opacity="0.1091236561635969"></circle><circle r="4.907412636306064" cx="596.9000508886651" cy="406.49381080688585" opacity="0.7962472984639906"></circle><circle r="5.46925493985947" cx="108.17025191548778" cy="759.7584825443574" opacity="0.8759692817959229"></circle><circle r="3.705599282491253" cx="37.985903535999995" cy="567.9525442450474" opacity="0.7647484837064868"></circle><circle r="2.9728726850287908" cx="780.8075319713633" cy="686.3899058240353" opacity="0.6415635304159938"></circle><circle r="5.962698857041995" cx="587.68946926209" cy="437.24020300744024" opacity="0.6269884131916497"></circle><circle r="3.9335238024694137" cx="316.1015876280612" cy="526.5083927651812" opacity="0.3913869792650059"></circle><circle r="5.4691159973240095" cx="520.463546064428" cy="426.7486612350755" opacity="0.4456866059052901"></circle><circle r="4.403569371114656" cx="72.83581102966909" cy="32.620354667256606" opacity="0.9432729556307593"></circle><circle r="3.8565421134208693" cx="35.26422966291112" cy="104.15105382109692" opacity="0.7170845616162537"></circle><circle r="4.7598830525921505" cx="271.50124318356166" cy="313.07117615726935" opacity="0.26889948814064835"></circle><circle r="8.847721480220867" cx="186.83677803154808" cy="461.0107423957873" opacity="0.4992354989719111"></circle><circle r="4.970837213349865" cx="293.2435671718512" cy="121.19030375577461" opacity="0.6846582444513158"></circle><circle r="5.284829894969368" cx="14.639474636645605" cy="763.9262484329253" opacity="0.7015304044308455"></circle><circle r="5.101002461318165" cx="327.6390636240734" cy="382.1397866065879" opacity="0.47363139322738146"></circle><circle r="6.473785154011535" cx="725.9560662095362" cy="338.35227331484236" opacity="0.7084432678361171"></circle><circle r="10.136815236559674" cx="154.13772813344647" cy="657.9970443370769" opacity="0.4004481743272499"></circle><circle r="7.470897522359973" cx="309.4226789095991" cy="765.1579259270814" opacity="0.36995324130516305"></circle><circle r="7.3250711536061734" cx="253.5879614296273" cy="681.4206306163406" opacity="0.3348022063021464"></circle><circle r="5.1101443245509675" cx="501.8058414145754" cy="604.007452942169" opacity="0.6240864230924951"></circle><circle r="5.895574133985235" cx="342.14215574989106" cy="769.7576777968524" opacity="0.13819007668080405"></circle><circle r="5.3366976596655755" cx="595.4424784700402" cy="709.6142347386921" opacity="0.7109542144072369"></circle><circle r="6.902253473314646" cx="50.16320589194423" cy="350.45565376646437" opacity="0.3205121004262365"></circle><circle r="3.697403001458692" cx="289.336653738597" cy="266.2776809654169" opacity="0.1492033082832491"></circle><circle r="3.4284534652934004" cx="786.4063488269023" cy="500.44555949929617" opacity="0.21044378179337947"></circle><circle r="5.463238100432108" cx="731.3391661530479" cy="781.130340391487" opacity="0.7192185201367225"></circle><circle r="4.073760737175678" cx="560.6136520699947" cy="299.0231124541311" opacity="0.29842551682696405"></circle><circle r="7.343432121542607" cx="345.4329837232475" cy="171.0896431941458" opacity="0.429270871497168"></circle><circle r="8.920055674008667" cx="192.80525530971772" cy="660.135260931913" opacity="0.6418318369262982"></circle><circle r="4.826050573336403" cx="294.0535536475278" cy="376.3056703486006" opacity="0.7619575731526264"></circle><circle r="5.398449395254517" cx="682.8081755743257" cy="652.0684849124472" opacity="0.4913002536237382"></circle><circle r="6.830305168467696" cx="489.2383398476417" cy="24.23500738601808" opacity="0.21891333394190893"></circle><circle r="4.514315874910084" cx="660.4768593479861" cy="22.73920721179329" opacity="0.981727089237217"></circle><circle r="7.466433339637127" cx="235.58568915358893" cy="145.26031165556495" opacity="0.22440930152389557"></circle><circle r="3.1582279882024547" cx="203.74899933947694" cy="260.4374602558378" opacity="0.22439922699507603"></circle><circle r="5.104281803699277" cx="491.2202388408268" cy="494.32453640921506" opacity="0.10533612881613795"></circle><circle r="4.868408198160744" cx="699.0253425118184" cy="442.2150881486683" opacity="0.4249324999200188"></circle><circle r="5.541329427565362" cx="749.2998308616754" cy="389.19657060862556" opacity="0.46773860440465753"></circle><circle r="4.523370968945154" cx="573.57616610504" cy="282.2656620711332" opacity="0.682157804745631"></circle><circle r="6.073958290375005" cx="251.27017377781416" cy="507.561580611507" opacity="0.305268700375257"></circle><circle r="5.533902650525" cx="598.791707349727" cy="325.19723912217523" opacity="0.26312533900980467"></circle><circle r="5.035656946414802" cx="541.8913353083356" cy="382.79883881952674" opacity="0.12997210152889466"></circle><circle r="6.2016105816205105" cx="448.3199517920902" cy="280.65706489468334" opacity="0.989816640727877"></circle><circle r="6.121329826859936" cx="698.3628023768028" cy="529.2283088400302" opacity="0.34014527038533293"></circle><circle r="3.7894268368837505" cx="95.10297035707563" cy="705.7516420780809" opacity="0.33011437505090463"></circle><circle r="4.784859206234183" cx="197.34742420480174" cy="551.295963789192" opacity="0.634597934115477"></circle><circle r="6.144517872545436" cx="204.83839670349985" cy="356.8295874584469" opacity="0.7789836183722201"></circle><circle r="3.450461497887008" cx="96.19121800101782" cy="735.3119013074903" opacity="0.7250234289190393"></circle><circle r="5.6683580926266295" cx="537.8382031010489" cy="232.20941569672948" opacity="0.6574401448151233"></circle><circle r="6.408354476771855" cx="387.40515842319854" cy="320.54084179784263" opacity="0.13163737597381825"></circle><circle r="5.20475346653347" cx="457.230923221449" cy="11.718706906525815" opacity="0.41258058874609616"></circle><circle r="5.537351056458951" cx="101.86813222344962" cy="111.70652278588919" opacity="0.5749834995928177"></circle><circle r="4.677789423080797" cx="48.51552117464018" cy="725.5155936385243" opacity="0.7854869710294665"></circle><circle r="4.184828157411321" cx="226.835555765505" cy="181.58827262021276" opacity="0.37533236441553164"></circle><circle r="5.312486324504013" cx="91.21746768294449" cy="777.5507200470321" opacity="0.708595775261203"></circle><circle r="5.236497248111254" cx="499.6613287015168" cy="181.68655729204886" opacity="0.7874660661693398"></circle><circle r="7.988947272408839" cx="362.43818025073426" cy="490.0664899026716" opacity="0.4344256719497225"></circle><circle r="4.879440036929021" cx="280.50108806242173" cy="781.2615226071845" opacity="0.7578217942809686"></circle><circle r="5.462027704913176" cx="243.39809871418134" cy="297.16474731533714" opacity="0.9803327916352866"></circle><circle r="4.602017602755642" cx="513.4826859546472" cy="528.7287800899425" opacity="0.20453873309850418"></circle><circle r="5.5767713031627775" cx="173.2781383953118" cy="124.60924219867624" opacity="0.12266176995136602"></circle><circle r="6.37285263093233" cx="567.0124092692772" cy="528.7182614920674" opacity="0.5346754650275536"></circle><circle r="4.779394690493025" cx="476.9251949785632" cy="426.7718184044001" opacity="0.4345035265631574"></circle><circle r="6.001491074330236" cx="176.16919309335324" cy="755.1281809687284" opacity="0.6354267088587092"></circle><circle r="8.124787457647543" cx="285.64461813112706" cy="437.1767748169341" opacity="0.8990250848643733"></circle><circle r="5.041106207743505" cx="58.59534900572106" cy="122.62994975147883" opacity="0.4854991462042715"></circle><circle r="4.62838546383278" cx="318.8363447995642" cy="617.6062187791672" opacity="0.14194036276304337"></circle><circle r="4.812658559296905" cx="705.8018721186844" cy="565.629974979885" opacity="0.6224266141092727"></circle><circle r="6.481629174857913" cx="300.4213698105915" cy="14.635672266912598" opacity="0.557729084364767"></circle><circle r="6.103154485541069" cx="315.4242734585945" cy="492.95494673734055" opacity="0.8021531061215073"></circle><circle r="3.637760938493189" cx="486.7320142071617" cy="454.9862479959666" opacity="0.7714824769891936"></circle><circle r="7.680290853605597" cx="497.55858478288155" cy="777.045747367582" opacity="0.7806569213907315"></circle><circle r="3.353128944765837" cx="74.98168450905027" cy="8.176240436421685" opacity="0.9422768443509729"></circle><circle r="8.837876326130258" cx="636.2084473562059" cy="180.95993689747948" opacity="0.6954257134483867"></circle><circle r="4.176640609112668" cx="707.2870992301905" cy="258.8911584550529" opacity="0.2367379471851443"></circle><circle r="4.350351801324845" cx="166.2466488467411" cy="234.26698716198737" opacity="0.5591965733061468"></circle><circle r="5.970683972089461" cx="568.438039225834" cy="141.35392951865546" opacity="0.7376238182707752"></circle><circle r="5.492464568907561" cx="749.4370610151976" cy="710.3488599110997" opacity="0.9539431726651089"></circle><circle r="4.871773436406826" cx="433.4037168324326" cy="461.1415197559724" opacity="0.2715464456517068"></circle><circle r="5.690214949393278" cx="181.57822936481867" cy="294.6985033555816" opacity="0.3434934504864047"></circle><circle r="4.6251828326100775" cx="655.033499321486" cy="48.76119337978265" opacity="0.3849198220915223"></circle><circle r="2.5398358421659952" cx="240.5376068655433" cy="437.8570222624352" opacity="0.2709000972860463"></circle><circle r="8.771155872421712" cx="20.824493037551743" cy="274.9800909268484" opacity="0.825148645381484"></circle><circle r="4.112010537746926" cx="66.80443891927095" cy="175.79845961296957" opacity="0.45464152105781297"></circle><circle r="4.228053463858553" cx="242.33992965219903" cy="210.42026344613745" opacity="0.9560005522107011"></circle><circle r="3.980887826705809" cx="21.99336373871842" cy="710.3670932079813" opacity="0.6489946412722205"></circle><circle r="7.335831098558563" cx="666.1134531711608" cy="78.34419014840682" opacity="0.3102652672606363"></circle><circle r="4.615039924119079" cx="724.1362761488762" cy="367.74061648454904" opacity="0.2470398440838636"></circle><circle r="5.629837490603357" cx="749.6090894061576" cy="543.3632786087453" opacity="0.2836720210540832"></circle><circle r="5.83408160449538" cx="742.9988143610042" cy="138.1380871304317" opacity="0.9704010730634741"></circle><circle r="7.643156577110522" cx="741.3888415788688" cy="209.91359061301188" opacity="0.9774506298634944"></circle><circle r="6.55921169263277" cx="79.8300775532039" cy="381.4743286911045" opacity="0.7009897272447047"></circle><circle r="3.9410249300119067" cx="98.69246155408756" cy="168.02060846625784" opacity="0.23792269318044723"></circle><circle r="5.382878637250252" cx="24.91277170956965" cy="740.0194028265636" opacity="0.3362016824238411"></circle><circle r="10.4238582892745" cx="108.30718002713274" cy="416.4136455069703" opacity="0.4858586905864243"></circle><circle r="6.28286671823879" cx="754.5504262909654" cy="570.9802432670448" opacity="0.7080927227399977"></circle><circle r="8.397913515737683" cx="318.30226862494686" cy="206.54159785889814" opacity="0.5331693899402032"></circle><circle r="4.3469714757930475" cx="638.0842912804068" cy="469.2165284113401" opacity="0.5651466740751203"></circle><circle r="8.370243811022924" cx="232.39786268182283" cy="714.1006003634499" opacity="0.3241581602808593"></circle><circle r="7.435766791994494" cx="754.0336074980933" cy="284.3039030833925" opacity="0.15441099722545598"></circle><circle r="6.779318170131663" cx="736.2894412307962" cy="58.78459247043206" opacity="0.5783687654062074"></circle><circle r="7.6440942603159066" cx="362.20178050306424" cy="131.96852317864628" opacity="0.7041245567477478"></circle><circle r="3.482539590409196" cx="609.2549661225938" cy="269.9624634546584" opacity="0.28112458096249837"></circle><circle r="7.631283226641081" cx="600.6417518726652" cy="665.6760167000788" opacity="0.1925700493271423"></circle><circle r="6.113586961921114" cx="710.510788990412" cy="161.0938898977191" opacity="0.4939431146883898"></circle><circle r="7.1222002788662495" cx="741.350176988656" cy="451.32856336842804" opacity="0.8593189528696636"></circle><circle r="6.958102486279855" cx="271.95419332784996" cy="472.92149794645604" opacity="0.16500994028157673"></circle><circle r="5.269182863511271" cx="692.5096238753424" cy="204.52846090222167" opacity="0.40511139529582163"></circle><circle r="4.1647279735958165" cx="123.04487428713666" cy="232.764188101572" opacity="0.5592675777901949"></circle><circle r="6.032628984244271" cx="657.9853432992129" cy="139.2763266723177" opacity="0.6824751899618059"></circle><circle r="7.806149522963831" cx="129.79997642381028" cy="42.755539077829646" opacity="0.3609556602890973"></circle><circle r="3.6488710024338746" cx="407.37386091331535" cy="452.5208529483504" opacity="0.9936195535403972"></circle><circle r="6.7285512027560355" cx="135.44000517487675" cy="133.72386048108612" opacity="0.11213392983642521"></circle><circle r="5.568570457915069" cx="383.38575284136505" cy="157.91109847014556" opacity="0.4147423094478827"></circle><circle r="4.930366696041454" cx="732.3441212998706" cy="309.2164166765106" opacity="0.8296583613714139"></circle><circle r="4.98404722504777" cx="338.54765230544723" cy="702.08091158875" opacity="0.29126595770032737"></circle><circle r="7.03098132853385" cx="723.126674351104" cy="741.2183187447379" opacity="0.44318924944981464"></circle><circle r="4.297548832862675" cx="546.7709252763191" cy="113.5293984776189" opacity="0.5012355056547754"></circle><circle r="4.380679415133779" cx="223.47430004508334" cy="236.07728367670597" opacity="0.7798312418186824"></circle><circle r="11.241024378250291" cx="590.4704501646394" cy="100.58614255474068" opacity="0.5649381651856972"></circle><circle r="4.721492451930191" cx="677.6602562868" cy="789.295540721466" opacity="0.5530728992131959"></circle><circle r="7.7937395636073" cx="14.607164226415708" cy="637.431195699341" opacity="0.6514629814718449"></circle><circle r="7.930231816456281" cx="579.2781288427722" cy="468.61697215403683" opacity="0.27410859080142297"></circle><circle r="5.288737772384524" cx="267.3689641127665" cy="350.0883727484704" opacity="0.7510746102019235"></circle><circle r="4.47816849311579" cx="252.4698926257346" cy="253.60482997712555" opacity="0.347921466204301"></circle><circle r="5.154538593247655" cx="150.26062589369562" cy="205.82198862631907" opacity="0.3156183423480976"></circle><circle r="4.139012058032237" cx="524.0738275799846" cy="285.83839478187156" opacity="0.4697660491828588"></circle><circle r="8.336419779899964" cx="191.95665460852902" cy="206.75432910967294" opacity="0.5659403126296467"></circle><circle r="3.862587357950378" cx="343.95001884260955" cy="412.23306780478987" opacity="0.4430036099630359"></circle><circle r="4.098523643811685" cx="268.0430941742159" cy="405.01222086402277" opacity="0.9944954048727911"></circle><circle r="7.302484730764249" cx="481.91273387919864" cy="634.6129951449203" opacity="0.11442379794879202"></circle><circle r="2.266552370626497" cx="77.21438037634067" cy="705.206835822126" opacity="0.7440279040725281"></circle><circle r="4.20549711986408" cx="90.17867316357452" cy="214.73012929071427" opacity="0.35730540824076185"></circle></g></svg>