<svg xmlns="http://www.w3.org/2000/svg" version="1.1" xmlns:xlink="http://www.w3.org/1999/xlink" xmlns:svgjs="http://svgjs.dev/svgjs" viewBox="0 0 2400 800" opacity="0.1"><defs><linearGradient x1="50%" y1="0%" x2="50%" y2="100%" id="sssurf-grad"><stop stop-color="hsla(0, 0%, 0%, 1.00)" stop-opacity="1" offset="0%"></stop><stop stop-color="hsla(0, 0%, 27%, 1.00)" stop-opacity="1" offset="100%"></stop></linearGradient></defs><g fill="url(#sssurf-grad)" transform="matrix(1,0,0,1,0,-11.52685546875)"><path d="M 0 275.7128846552706 Q 225 500.24109517862354 300 312.0610639304071 Q 525 614.0579436446124 600 419.72142361326286 Q 825 626.5431655358786 900 409.53029879311714 Q 1125 637.700640462437 1200 402.96724109265597 Q 1425 607.5593436153346 1500 249.05371534595218 Q 1725 569.86722102748 1800 331.1119700343143 Q 2025 545.6837103857004 2100 321.86942152180865 Q 2325 589.4443321198005 2400 410.018499728324 L 2400 800 L 0 800 L 0 319.84094706629287 Z" transform="matrix(1,0,0,1,0,29)" opacity="0.05"></path><path d="M 0 275.7128846552706 Q 225 500.24109517862354 300 312.0610639304071 Q 525 614.0579436446124 600 419.72142361326286 Q 825 626.5431655358786 900 409.53029879311714 Q 1125 637.700640462437 1200 402.96724109265597 Q 1425 607.5593436153346 1500 249.05371534595218 Q 1725 569.86722102748 1800 331.1119700343143 Q 2025 545.6837103857004 2100 321.86942152180865 Q 2325 589.4443321198005 2400 410.018499728324 L 2400 800 L 0 800 L 0 319.84094706629287 Z" transform="matrix(1,0,0,1,0,58)" opacity="0.29"></path><path d="M 0 275.7128846552706 Q 225 500.24109517862354 300 312.0610639304071 Q 525 614.0579436446124 600 419.72142361326286 Q 825 626.5431655358786 900 409.53029879311714 Q 1125 637.700640462437 1200 402.96724109265597 Q 1425 607.5593436153346 1500 249.05371534595218 Q 1725 569.86722102748 1800 331.1119700343143 Q 2025 545.6837103857004 2100 321.86942152180865 Q 2325 589.4443321198005 2400 410.018499728324 L 2400 800 L 0 800 L 0 319.84094706629287 Z" transform="matrix(1,0,0,1,0,87)" opacity="0.53"></path><path d="M 0 275.7128846552706 Q 225 500.24109517862354 300 312.0610639304071 Q 525 614.0579436446124 600 419.72142361326286 Q 825 626.5431655358786 900 409.53029879311714 Q 1125 637.700640462437 1200 402.96724109265597 Q 1425 607.5593436153346 1500 249.05371534595218 Q 1725 569.86722102748 1800 331.1119700343143 Q 2025 545.6837103857004 2100 321.86942152180865 Q 2325 589.4443321198005 2400 410.018499728324 L 2400 800 L 0 800 L 0 319.84094706629287 Z" transform="matrix(1,0,0,1,0,116)" opacity="0.76"></path><path d="M 0 275.7128846552706 Q 225 500.24109517862354 300 312.0610639304071 Q 525 614.0579436446124 600 419.72142361326286 Q 825 626.5431655358786 900 409.53029879311714 Q 1125 637.700640462437 1200 402.96724109265597 Q 1425 607.5593436153346 1500 249.05371534595218 Q 1725 569.86722102748 1800 331.1119700343143 Q 2025 545.6837103857004 2100 321.86942152180865 Q 2325 589.4443321198005 2400 410.018499728324 L 2400 800 L 0 800 L 0 319.84094706629287 Z" transform="matrix(1,0,0,1,0,145)" opacity="1.00"></path></g></svg>