<svg xmlns="http://www.w3.org/2000/svg" version="1.1" xmlns:xlink="http://www.w3.org/1999/xlink" xmlns:svgjs="http://svgjs.dev/svgjs" viewBox="0 0 800 800" opacity="0.16"><defs><linearGradient x1="50%" y1="0%" x2="50%" y2="100%" id="ssscribble-grad"><stop stop-color="hsl(0, 0%, 100%)" stop-opacity="1" offset="0%"></stop><stop stop-color="hsl(0, 0%, 27%)" stop-opacity="1" offset="100%"></stop></linearGradient></defs><g fill="none" stroke-width="1" stroke="url(#ssscribble-grad)" stroke-linecap="round"><path d="M497.88 552.4C271.67 583.88 235.04 669.35 369.37 783.35 606.38 874.18 813.85 940 921.59 921.59 940 813.85 874.18 606.38 783.35 369.37 669.35 235.04 583.88 271.67 552.4 497.88 520.92 797.12 546.4 989.61 605.85 996.37 642.12 838.35 658.81 599.35 599.15 383.86 450.15 212.33 209.29 124.08 -50.78 90.03 -208.19 87.34 -184.32 83.81 41.88 52.33 443.74 -7.36 338.45 -88.42 61.41 61.37 -88.41 338.41 -7.38 443.79 52.32 41.97 83.81 -184.29 87.35 -208.21 90.03 -50.82 124.07 209.26 212.3 450.13 383.82 599.14 599.3 658.81 838.31 642.12 996.35 605.84 989.63 546.4 797.19 520.91 497.97 552.39Q497.88 552.4 497.88 552.4" opacity="0.39"></path><path d="M478.88 701.64C265.03 730.5 206.77 792.27 298.44 861.55 496.15 905.68 697.41 909.14 833.09 833.09 909.14 697.41 905.68 496.15 861.55 298.44 792.27 206.77 730.5 265.03 701.64 478.88 672.78 754.58 679.58 948.72 698.85 991.22 692.97 889.99 651.39 696.16 537.52 495.28 364.02 305.37 132.15 177.27 -86.7 105.15 -199.52 57.92 -152.96 29.43 60.88 0.57 336.58 -28.27 542.42 -54.77 606.07 -57.54 525.99 -35.43 362.76 47.62 199.71 199.7 47.62 362.75 -35.43 525.97 -57.55 606.07 -54.77 542.45 -28.28 336.65 0.56 60.97 29.42 -152.93 57.91 -199.53 105.13 -86.73 177.24 132.12 305.33 364 495.23 537.51 696.11 651.39 889.96 692.96 991.22 698.85 948.75 679.57 754.65 672.78 478.97 701.63Q478.88 701.64 478.88 701.64" opacity="0.21"></path><path d="M459.88 787.25C259.78 813.49 184.7 848.18 237.08 871.48 390.71 873.03 570.41 826.93 714.26 714.26 826.93 570.41 873.03 390.71 871.48 237.08 848.18 184.7 813.49 259.78 787.25 459.88 761.02 711.47 745.73 902.47 723.57 973.13 679.65 924.54 592.61 782.42 445.56 612.25 267.33 428.58 59.8 283.33 -113.05 187.82 -184.66 107.98 -120.21 59.31 79.88 33.08 331.47 6.84 533.1 5.53 623 39.91 593.63 89.95 479.34 194.26 343.55 343.54 194.26 479.32 89.95 593.62 39.9 623 5.52 533.13 6.83 331.54 33.07 79.97 59.29 -120.17 107.95 -184.66 187.79 -113.08 283.29 59.77 428.53 267.31 612.2 445.54 782.38 592.6 924.52 679.64 973.14 723.56 902.5 745.72 711.54 761.01 459.97 787.24Q459.88 787.25 459.88 787.25" opacity="0.85"></path><path d="M440.88 791.18C255.89 814.79 168.85 824.9 186.68 810.03 294.95 779.92 441.88 702.89 576.28 576.28 702.89 441.88 779.92 294.95 810.03 186.68 824.9 168.85 814.79 255.89 791.18 440.88 767.57 667.86 732.69 851.26 676.9 942.14 605.88 939.23 492 849.97 334.45 720.94 169.1 563.75 -2.86 423.66 -128.43 321.87 -163.57 226.51 -86.1 166.59 98.88 142.98 325.86 119.36 518.83 134.3 627.01 188.75 641.41 249.61 577.19 352.86 479.1 479.09 352.86 577.18 249.61 641.4 188.74 627.02 134.3 518.87 119.36 325.93 142.97 98.97 166.56 -86.06 226.47 -163.56 321.83 -128.45 423.61 -2.89 563.7 169.08 720.89 334.43 849.94 491.99 939.22 605.87 942.15 676.9 851.3 732.68 667.93 767.56 440.97 791.17Q440.88 791.18 440.88 791.18" opacity="0.44"></path><path d="M421.88 712.59C253.3 733.57 159.21 726.04 148.3 686.89 213.21 639.74 320.97 552.14 432.37 432.37 552.14 320.97 639.74 213.21 686.89 148.3 726.04 159.21 733.57 253.3 712.59 421.88 691.6 623.83 644.08 795.58 568.56 898.64 485.04 932.31 364.69 892.11 217.41 808.36 78.51 691.07 -51.51 574.18 -131.8 481.91 -136.27 388.85 -50.69 328.07 117.88 307.09 319.83 286.1 500.09 306.89 618.53 363.59 667.58 419.48 649.64 503.62 593.4 593.4 503.62 649.64 419.48 667.58 363.59 618.53 306.89 500.09 286.1 319.83 307.09 117.88 328.05 -50.69 388.82 -136.28 481.87 -131.8 574.13 -51.51 691.03 78.5 808.33 217.41 892.09 364.69 932.31 485.04 898.67 568.55 795.63 644.07 623.9 691.59 421.97 712.58Q421.88 712.59 421.88 712.59" opacity="0.70"></path><path d="M402.88 568.06C251.91 586.42 155.61 570.32 122.65 522.86 149.16 473.49 216.35 393.54 296.49 296.49 393.54 216.35 473.49 149.16 522.86 122.65 570.32 155.61 586.42 251.91 568.06 402.88 549.7 579.53 498.6 736.06 419.32 843.53 338.12 903.25 229.52 904.15 108.4 863.74 4.19 791.71 -82.46 709.13 -122.44 637.86 -102.93 561.59 -14.08 509.16 136.88 490.8 313.53 472.44 477.51 489.88 598.43 534.32 681.8 600.73 600.73 681.8 534.32 598.43 489.88 477.51 472.44 313.53 490.8 136.88 509.16 -14.08 561.59 -102.93 637.86 -122.44 709.13 -82.46 791.71 4.19 863.73 108.4 904.14 229.52 903.26 338.12 843.55 419.32 736.11 498.6 579.6 549.69 402.97 568.05Q402.88 568.06 402.88 568.06" opacity="0.72"></path><path d="M383.88 388.08C134.43 372.88 372.88 134.43 388.08 383.88 356.6 683.14 206.24 863.29 20.41 879.78 -91.29 797.34 -70.32 686.84 155.88 655.36 455.14 623.87 660.81 677.37 718.56 718.56 677.37 660.81 623.87 455.14 655.36 155.88 686.84 -70.32 797.34 -91.29 879.78 20.41 863.29 206.24 683.14 356.6 383.88 388.08Q383.88 388.08 383.88 388.08" opacity="0.26"></path><path d="M364.88 210.62C164.8 236.85 84.44 176.56 98.57 98.57 176.56 84.44 236.85 164.8 210.62 364.88 184.38 616.47 76.6 794.64 -35.77 853.34 -84.28 845.14 -25.19 792.28 174.88 766.05 426.47 739.81 625.91 745.18 718.99 718.99 745.18 625.91 739.81 426.47 766.05 174.88 792.28 -25.19 845.14 -84.28 853.34 -35.77 794.64 76.6 616.47 184.38 364.88 210.62Q364.88 210.62 364.88 210.62" opacity="0.18"></path><path d="M345.88 73.1C177.3 94.08 81.37 72.6 54.75 54.75 72.6 81.37 94.08 177.3 73.1 345.88 52.11 547.86 -7.36 707.66 -52.72 785.82 -53.61 826.95 25.3 820.51 193.88 799.53 395.86 778.54 572.67 746.98 678.33 678.33 746.98 572.67 778.54 395.86 799.53 193.88 820.51 25.3 826.95 -53.61 785.82 -52.72 707.66 -7.36 547.86 52.11 345.88 73.1Q345.88 73.1 345.88 73.1" opacity="0.34"></path><path d="M326.88 4.53C100.67 36.01 36.01 100.67 4.53 326.88 -26.95 626.19 -13.32 780.21 212.88 748.73 512.19 717.24 717.24 512.19 748.73 212.88 780.21 -13.32 626.19 -26.95 326.88 4.53Q326.88 4.53 326.88 4.53" opacity="0.44"></path><path d="M307.88 19.39C139.33 40.37 40.37 139.33 19.39 307.88 -1.59 509.86 63.33 645.35 231.88 624.37 433.86 603.38 603.38 433.86 624.37 231.88 645.35 63.33 509.86 -1.59 307.88 19.39Q307.88 19.39 307.88 19.39" opacity="0.63"></path></g></svg>